<?xml version="1.0" standalone="no"?><!DOCTYPE svg PUBLIC "-//W3C//DTD SVG 1.1//EN" "http://www.w3.org/Graphics/SVG/1.1/DTD/svg11.dtd"><svg t="1710169402163" class="icon" viewBox="0 0 1024 1024" version="1.1" xmlns="http://www.w3.org/2000/svg" p-id="8188" xmlns:xlink="http://www.w3.org/1999/xlink" width="200" height="200"><path d="M870.4 627.5072V143.36a61.44 61.44 0 0 0-61.44-61.44h-614.4a61.44 61.44 0 0 0-61.44 61.44v716.8A61.44 61.44 0 0 0 194.56 921.6h381.7472a230.4 230.4 0 0 0 50.2784 81.92H194.56A143.36 143.36 0 0 1 51.2 860.16v-716.8A143.36 143.36 0 0 1 194.56 0h614.4a143.36 143.36 0 0 1 143.36 143.36v534.4256a230.4 230.4 0 0 0-81.92-50.2784z" fill="#40A3FF" p-id="8189"></path><path d="M245.76 194.56h204.8a51.2 51.2 0 1 1 0 102.4h-204.8a51.2 51.2 0 1 1 0-102.4zM245.76 399.36h512a51.2 51.2 0 0 1 0 102.4h-512a51.2 51.2 0 1 1 0-102.4zM788.5824 614.4512c-73.3184 1.536-138.24 37.376-179.3024 92.1088H245.76a51.2 51.2 0 0 1 0-102.4h512c11.5712 0 22.2208 3.84 30.8224 10.2912z" fill="#40A3FF" p-id="8190"></path><path d="M793.6 1024a179.2 179.2 0 1 1 0-358.4 179.2 179.2 0 0 1 0 358.4z m92.672-240.8448l-99.84 113.2544-78.2336-68.7616a15.36 15.36 0 0 0-20.2752 23.04l89.8048 78.8992a15.36 15.36 0 0 0 21.6576-1.3824l109.9264-124.7232a15.36 15.36 0 0 0-23.04-20.3264z" fill="#40A3FF" p-id="8191"></path></svg>