<?xml version="1.0" standalone="no"?><!DOCTYPE svg PUBLIC "-//W3C//DTD SVG 1.1//EN" "http://www.w3.org/Graphics/SVG/1.1/DTD/svg11.dtd"><svg t="1710169434704" class="icon" viewBox="0 0 1024 1024" version="1.1" xmlns="http://www.w3.org/2000/svg" p-id="9180" xmlns:xlink="http://www.w3.org/1999/xlink" width="200" height="200"><path d="M668.416 606.8224l-43.6224 111.36a32.4864 32.4864 0 0 1-30.3104 20.6848H421.12c-13.5168 0-25.6-8.3456-30.4128-20.9408l-42.1888-110.7968a32.768 32.768 0 0 0-30.6176-21.0944H169.0624c-44.288 0-80.2304 35.8912-80.2304 80.2304v161.7408c0 44.288 35.8912 80.2304 80.2304 80.2304h677.1712c44.288 0 80.2304-35.8912 80.2304-80.2304v-161.7408c0-44.288-35.8912-80.2304-80.2304-80.2304H698.88a32.7168 32.7168 0 0 0-30.464 20.7872z" fill="#F5504E" p-id="9181"></path><path d="M703.7952 117.0944H311.5008c-58.112 0-105.216 47.104-105.216 105.216v317.8496h147.968c11.008 0 20.8384 8.3968 24.7296 21.0944l43.6736 111.104c4.9152 12.4416 16.896 20.6336 30.3104 20.6336h109.6192c13.312 0 25.2416-8.0896 30.208-20.4288l44.8512-111.616c3.9936-12.544 13.7728-20.7872 24.6784-20.7872h146.7904V222.3616c-0.0512-58.1632-47.1552-105.2672-105.3184-105.2672z m-126.0544 344.8832H375.8592c-14.1312 0-25.6-11.4688-25.6-25.6s11.4688-25.6 25.6-25.6h201.8816c14.1312 0 25.6 11.4688 25.6 25.6s-11.4176 25.6-25.6 25.6z m69.8368-125.6448H375.8592c-14.1312 0-25.6-11.4688-25.6-25.6s11.4688-25.6 25.6-25.6h271.6672c14.1312 0 25.6 11.4688 25.6 25.6s-11.4176 25.6-25.5488 25.6z" fill="#FF5A5A" p-id="9182"></path><path d="M846.2336 586.0352H698.88c-13.4656 0-25.6 8.2432-30.5152 20.7872l-43.6224 111.36a32.4864 32.4864 0 0 1-30.3104 20.6848H421.12c-13.5168 0-25.6-8.3456-30.4128-20.9408l-42.1888-110.7968a32.768 32.768 0 0 0-30.6176-21.0944H169.0624c-44.288 0-80.2304 35.8912-80.2304 80.2304v43.1616c92.2624 91.8016 220.5696 146.9952 360.9088 142.9504 183.7056-5.3248 340.8896-110.7456 420.9152-262.5024-7.68-2.5088-15.872-3.84-24.4224-3.84z" fill="#FF5A5A" p-id="9183"></path><path d="M360.3968 675.1744c4.608-0.1536 9.216-0.3584 13.7728-0.6144l-25.7024-67.4816a32.768 32.768 0 0 0-30.6176-21.0944H169.0624c-24.32 0-46.08 10.8544-60.8256 28.0064 74.5472 41.3696 160.8192 63.8464 252.16 61.184z" fill="#F66A68" p-id="9184"></path><path d="M809.0624 222.3616c0-58.112-47.104-105.216-105.216-105.216H311.5008c-58.112 0-105.216 47.104-105.216 105.216v317.8496h147.968c11.008 0 20.8384 8.3968 24.7296 21.0944l42.5984 108.3392c75.7248-11.6224 145.5104-40.4992 205.4656-82.3296l10.5472-26.3168c3.9936-12.544 13.7728-20.7872 24.6784-20.7872h22.4768c55.1936-52.48 98.1504-117.5552 124.3136-190.5152V222.3616z m-231.3216 239.616H375.8592c-14.1312 0-25.6-11.4688-25.6-25.6s11.4688-25.6 25.6-25.6h201.8816c14.1312 0 25.6 11.4688 25.6 25.6s-11.4176 25.6-25.6 25.6z m69.8368-125.6448H375.8592c-14.1312 0-25.6-11.4688-25.6-25.6s11.4688-25.6 25.6-25.6h271.6672c14.1312 0 25.6 11.4688 25.6 25.6s-11.4176 25.6-25.5488 25.6z" fill="#F66A68" p-id="9185"></path><path d="M375.8592 336.3328c-14.1312 0-25.6-11.4688-25.6-25.6s11.4688-25.6 25.6-25.6h271.6672c0.7168 0 1.3824 0.1536 2.0992 0.2048a489.10848 489.10848 0 0 0 68.5056-167.168c-4.7104-0.6656-9.472-1.0752-14.336-1.0752H311.5008c-58.112 0-105.216 47.104-105.216 105.216v286.9248c14.7456 0.9216 29.5936 1.1776 44.6464 0.768 71.0656-2.048 138.1888-19.0976 198.4-48.0256H375.8592c-14.1312 0-25.6-11.4688-25.6-25.6s11.4688-25.6 25.6-25.6h157.3376a491.86816 491.86816 0 0 0 78.592-74.4448H375.8592z" fill="#F67271" p-id="9186"></path><path d="M543.8976 117.0944H311.5008c-58.112 0-105.216 47.104-105.216 105.216v113.2544c144.5376-15.6672 267.6736-99.7376 337.6128-218.4704z" fill="#F67B7A" p-id="9187"></path></svg>