<?xml version="1.0" standalone="no"?><!DOCTYPE svg PUBLIC "-//W3C//DTD SVG 1.1//EN" "http://www.w3.org/Graphics/SVG/1.1/DTD/svg11.dtd"><svg t="1711194388999" class="icon" viewBox="0 0 1024 1024" version="1.1" xmlns="http://www.w3.org/2000/svg" p-id="5326" xmlns:xlink="http://www.w3.org/1999/xlink" width="200" height="200"><path d="M757.466029 177.362679H285.152153v601.661244l509.550239 13.718661V215.578947c0.979904-20.57799-16.658373-38.216268-37.236363-38.216268zM272.413397 177.362679h12.738756" fill="#94ACDE" p-id="5327"></path><path d="M805.48134 802.541627H326.308134c-27.437321 0-49.97512-22.537799-49.97512-49.97512V161.684211c0-27.437321 22.537799-49.97512 49.97512-49.97512h479.173206c27.437321 0 49.97512 22.537799 49.975119 49.97512v590.882296c0.979904 27.437321-21.557895 49.97512-49.975119 49.97512zM326.308134 130.327273c-16.658373 0-30.377033 13.71866-30.377034 30.377033v590.882297c0 16.658373 13.71866 30.377033 30.377034 30.377033h479.173206c16.658373 0 30.377033-13.71866 30.377033-30.377033V161.684211c0-16.658373-13.71866-30.377033-30.377033-30.377034H326.308134z" fill="#24455C" p-id="5328"></path><path d="M697.691866 903.47177H218.51866c-22.537799 0-40.176077-18.618182-40.176076-40.176076V271.433493c0-22.537799 18.618182-40.176077 40.176076-40.176077h479.173206c22.537799 0 40.176077 18.618182 40.176077 40.176077V862.315789c0.979904 22.537799-17.638278 41.155981-40.176077 41.155981z" fill="#FFFFFF" p-id="5329"></path><path d="M697.691866 913.270813H218.51866c-27.437321 0-49.97512-22.537799-49.975119-49.975119V271.433493c0-27.437321 22.537799-49.97512 49.975119-49.97512h479.173206c27.437321 0 49.97512 22.537799 49.97512 49.97512V862.315789c0.979904 28.417225-21.557895 50.955024-49.97512 50.955024zM218.51866 241.056459c-16.658373 0-30.377033 13.71866-30.377033 30.377034V862.315789c0 16.658373 13.71866 30.377033 30.377033 30.377034h479.173206c16.658373 0 30.377033-13.71866 30.377034-30.377034V271.433493c0-16.658373-13.71866-30.377033-30.377034-30.377034H218.51866z" fill="#24455C" p-id="5330"></path><path d="M177.362679 378.243062h560.505264v189.121531H177.362679z" fill="#FE703E" p-id="5331"></path><path d="M748.64689 577.163636H167.563636V368.444019h580.10335v208.719617z m-561.485168-19.598086h540.907178V388.042105H187.161722v169.523445zM625.178947 316.509091H348.845933c-5.879426 0-9.799043-3.919617-9.799043-9.799043s3.919617-9.799043 9.799043-9.799043h275.35311c5.879426 0 9.799043 3.919617 9.799043 9.799043s-3.919617 9.799043-8.819139 9.799043z" fill="#24455C" p-id="5332"></path><path d="M625.178947 483.092823H348.845933c-5.879426 0-9.799043-3.919617-9.799043-9.799043s3.919617-9.799043 9.799043-9.799043h275.35311c5.879426 0 9.799043 3.919617 9.799043 9.799043s-3.919617 9.799043-8.819139 9.799043z" fill="#FFFFFF" p-id="5333"></path><path d="M625.178947 680.053589H304.750239c-5.879426 0-9.799043-3.919617-9.799043-9.799044s3.919617-9.799043 9.799043-9.799043h320.428708c5.879426 0 9.799043 3.919617 9.799043 9.799043s-4.899522 9.799043-9.799043 9.799044zM625.178947 773.144498H304.750239c-5.879426 0-9.799043-3.919617-9.799043-9.799043s3.919617-9.799043 9.799043-9.799044h320.428708c5.879426 0 9.799043 3.919617 9.799043 9.799044s-4.899522 9.799043-9.799043 9.799043z" fill="#24455C" p-id="5334"></path><path d="M277.312919 307.689952m-26.457417 0a26.457416 26.457416 0 1 0 52.914833 0 26.457416 26.457416 0 1 0-52.914833 0Z" fill="#FE703E" p-id="5335"></path><path d="M277.312919 473.29378m-32.336842 0a32.336842 32.336842 0 1 0 64.673684 0 32.336842 32.336842 0 1 0-64.673684 0Z" fill="#FFFFFF" p-id="5336"></path></svg>