<?xml version="1.0" standalone="no"?><!DOCTYPE svg PUBLIC "-//W3C//DTD SVG 1.1//EN" "http://www.w3.org/Graphics/SVG/1.1/DTD/svg11.dtd"><svg t="1711204974980" class="icon" viewBox="0 0 1279 1024" version="1.1" xmlns="http://www.w3.org/2000/svg" p-id="11278" xmlns:xlink="http://www.w3.org/1999/xlink" width="249.8046875" height="200"><path d="M911.08882 0.063964c28.272097 0 54.689237 18.805422 63.708164 45.094634 9.402711 27.504529 18.997314 55.009057 28.144169 82.57755 1.407208 4.477481 3.518021 6.012618 8.507215 6.012618 46.118059-0.127928 92.236117-0.575676 138.354176 0.255856 60.701855 1.151352 113.344244 44.263102 125.625336 102.150541 2.430633 11.385596 3.709913 23.027047 3.709913 34.732463 0.31982 205.644325 0.127928 411.096758 0.127928 616.677119 0 43.43157-15.991005 79.955025-51.107252 107.459554-26.225248 20.53245-56.80005 28.336061-90.189269 28.336061H639.433626c-164.451496 0-328.902992-0.127928-493.418452 0.127928-25.265788 0-49.508152-3.070273-71.639702-15.031545-47.973015-25.713536-73.814479-65.499157-73.942408-118.973078-0.447748-209.290274-0.575676-418.644512 0-627.870822 0.127928-58.718971 42.536073-112.576676 107.651446-125.113624 10.873883-2.046849 22.131551-2.750453 33.261291-2.750453 41.832469-0.255856 83.664938-0.255856 125.497407 0 5.56487 0 8.123431-1.407208 9.85046-6.652258 9.082891-27.696421 18.677494-55.136985 28.144168-82.641514 9.402711-27.504529 33.069398-44.39103 62.940596-44.39103h543.310388zM901.941965 66.138797c-119.292898 0.127928-238.64976 0.127928-358.198513 0.127928H376.413575c-3.581985 0-6.396402 0-7.867574 4.477481-13.880192 40.936973-28.016241 81.61809-41.704542 122.555063-1.727029 5.117122-3.709913 6.972078-9.594603 6.972078-59.230683-0.31982-118.589294 0.383784-177.819976-0.31982-37.994628-0.383784-71.127991 32.173902-71.12799 69.592854 0.447748 205.708289 0.127928 411.480542 0.31982 617.252796 0 5.756762 0.63964 11.76938 1.854956 17.590105 5.56487 26.481104 33.389219 53.154101 70.232495 53.026173 166.178525-0.63964 332.357049-0.447748 498.663501-0.447748 166.434381 0 332.932725-0.383784 499.558998 0.31982 38.18652 0.127928 72.471235-31.34237 72.471235-70.808171-0.447748-205.196577-0.127928-410.393154-0.255856-615.397838 0-5.88469-0.767568-11.833344-1.91892-17.718034-5.692798-27.504529-34.092823-53.985633-69.081142-53.537885-59.678431 0.575676-119.356862 0.127928-179.035293 0.255856-3.965769 0-5.948654-0.63964-7.419826-4.861265l-41.576613-121.979387c-1.790993-5.436942-4.221625-7.100006-10.106316-7.100006zM640.009302 255.920045c173.406459 0.127928 319.116497 136.883003 319.116497 320.971454A317.389468 317.389468 0 0 1 639.113806 895.560247C459.950586 895.304391 319.421633 753.624086 319.869381 573.821226A317.709289 317.709289 0 0 1 640.009302 255.920045zM639.689482 324.233619c-135.283903-0.447748-250.419139 113.216316-252.018239 246.901118-1.663065 140.33706 114.175776 256.431757 251.378599 256.239865 136.499219 0.63964 251.634456-113.728028 251.954276-250.483103 0.383784-137.650572-113.728028-252.210132-251.314636-252.65788z m438.985071-22.707228A73.622587 73.622587 0 0 1 1151.401644 375.404835a73.558623 73.558623 0 0 1-73.110875 72.151415c-40.297333 0-72.918983-33.005434-72.918983-73.558624 0-39.785621 33.261291-72.663127 73.302767-72.471235z" fill="#FFFFFF" p-id="11279"></path></svg>