<?xml version="1.0" standalone="no"?><!DOCTYPE svg PUBLIC "-//W3C//DTD SVG 1.1//EN" "http://www.w3.org/Graphics/SVG/1.1/DTD/svg11.dtd"><svg t="1711204519366" class="icon" viewBox="0 0 1024 1024" version="1.1" xmlns="http://www.w3.org/2000/svg" p-id="4575" xmlns:xlink="http://www.w3.org/1999/xlink" width="200" height="200"><path d="M954.88 896H69.12A36.336 36.336 0 0 1 32 859.744V310.752a36.336 36.336 0 0 1 37.12-36.256h194.528L283.696 158.4A37.088 37.088 0 0 1 320 128h314.88a36.272 36.272 0 1 1 0 72.528H351.264L331.2 316.56a37.088 37.088 0 0 1-36.384 30.4H106.24v476.512h811.52V347.008h-119.536a36.272 36.272 0 1 1 0-72.528h156.656A36.336 36.336 0 0 1 992 310.736v549.008A37.296 37.296 0 0 1 954.88 896z" fill="#5F5F5F" p-id="4576"></path><path d="M528 752a38.944 38.944 0 0 1 0-77.888 114.496 114.496 0 1 0-114.896-114.496 112.48 112.48 0 0 0 11.568 49.856 39.136 39.136 0 0 1-17.728 52.192 38.4 38.4 0 0 1-51.664-17.92 196.8 196.8 0 0 1-19.2-83.344A192 192 0 1 1 528 752z" fill="#5F5F5F" p-id="4577"></path></svg>