<?xml version="1.0" standalone="no"?><!DOCTYPE svg PUBLIC "-//W3C//DTD SVG 1.1//EN" "http://www.w3.org/Graphics/SVG/1.1/DTD/svg11.dtd"><svg t="1711259866517" class="icon" viewBox="0 0 1024 1024" version="1.1" xmlns="http://www.w3.org/2000/svg" p-id="5402" xmlns:xlink="http://www.w3.org/1999/xlink" width="200" height="200"><path d="M659.6 810.8H298.8c-17 0-30.8-13.9-30.8-30.8V276.4c0-17 13.9-30.8 30.8-30.8h360.8c17 0 30.8 13.9 30.8 30.8V780c0 16.9-13.9 30.8-30.8 30.8z" fill="#FFCFAA" p-id="5403"></path><path d="M662.8 246.7c-2-0.5-4 1.2-3.6 3.3 0.5 2.3 0.7 4.8 0.7 7.3v488.9c0 21.8-17.8 39.6-39.6 39.6h-346c-2.1 0-3.6 2.1-2.7 4.1 5.9 12.4 18.6 21 33.1 21h346c21.8 0 39.6-17.8 39.6-39.6v-489c0.1-17.1-11.7-31.5-27.5-35.6z" fill="#F2B78F" p-id="5404"></path><path d="M653.7 812.9H304.8c-21.4 0-38.9-17.4-38.9-38.9V282.3c0-21.4 17.4-38.9 38.9-38.9h348.9c21.4 0 38.9 17.4 38.9 38.9V774c-0.1 21.5-17.5 38.9-38.9 38.9zM304.8 247.7c-19.1 0-34.6 15.5-34.6 34.6V774c0 19.1 15.5 34.6 34.6 34.6h348.9c19.1 0 34.6-15.5 34.6-34.6V282.3c0-19.1-15.5-34.6-34.6-34.6H304.8z" fill="" p-id="5405"></path><path d="M473.1 548.4m-45.3 0a45.3 45.3 0 1 0 90.6 0 45.3 45.3 0 1 0-90.6 0Z" fill="#FFFFFF" p-id="5406"></path><path d="M341.7 315.5c-6.9 0-12.5-5.6-12.5-12.5v-95.6c0-6.9 5.6-12.5 12.5-12.5s12.5 5.6 12.5 12.5V303c0.1 6.9-5.5 12.5-12.5 12.5z" fill="#127EFF" p-id="5407"></path><path d="M341.7 317.1c-7.8 0-14.1-6.3-14.1-14.1v-95.6c0-7.8 6.3-14.1 14.1-14.1s14.1 6.3 14.1 14.1V303c0.1 7.7-6.3 14.1-14.1 14.1z m0-120.6c-6 0-10.9 4.9-10.9 10.9V303c0 6 4.9 10.9 10.9 10.9s10.9-4.9 10.9-10.9v-95.6c0.1-6-4.8-10.9-10.9-10.9z" fill="" p-id="5408"></path><path d="M429.3 315.5c-6.9 0-12.5-5.6-12.5-12.5v-95.6c0-6.9 5.6-12.5 12.5-12.5s12.5 5.6 12.5 12.5V303c0.1 6.9-5.5 12.5-12.5 12.5z" fill="#F40000" p-id="5409"></path><path d="M429.3 317.1c-7.8 0-14.1-6.3-14.1-14.1v-95.6c0-7.8 6.3-14.1 14.1-14.1s14.1 6.3 14.1 14.1V303c0.1 7.7-6.3 14.1-14.1 14.1z m0-120.6c-6 0-10.9 4.9-10.9 10.9V303c0 6 4.9 10.9 10.9 10.9s10.9-4.9 10.9-10.9v-95.6c0.1-6-4.8-10.9-10.9-10.9z" fill="" p-id="5410"></path><path d="M516.9 315.5c-6.9 0-12.5-5.6-12.5-12.5v-95.6c0-6.9 5.6-12.5 12.5-12.5s12.5 5.6 12.5 12.5V303c0.1 6.9-5.5 12.5-12.5 12.5z" fill="#127EFF" p-id="5411"></path><path d="M516.9 317.1c-7.8 0-14.1-6.3-14.1-14.1v-95.6c0-7.8 6.3-14.1 14.1-14.1s14.1 6.3 14.1 14.1V303c0.1 7.7-6.3 14.1-14.1 14.1z m0-120.6c-6 0-10.9 4.9-10.9 10.9V303c0 6 4.9 10.9 10.9 10.9s10.9-4.9 10.9-10.9v-95.6c0.1-6-4.8-10.9-10.9-10.9z" fill="" p-id="5412"></path><path d="M604.5 315.5c-6.9 0-12.5-5.6-12.5-12.5v-95.6c0-6.9 5.6-12.5 12.5-12.5s12.5 5.6 12.5 12.5V303c0.1 6.9-5.6 12.5-12.5 12.5z" fill="#F40000" p-id="5413"></path><path d="M604.5 317.1c-7.8 0-14.1-6.3-14.1-14.1v-95.6c0-7.8 6.3-14.1 14.1-14.1s14.1 6.3 14.1 14.1V303c0.1 7.7-6.3 14.1-14.1 14.1z m0-120.6c-6 0-10.9 4.9-10.9 10.9V303c0 6 4.9 10.9 10.9 10.9s10.9-4.9 10.9-10.9v-95.6c0.1-6-4.9-10.9-10.9-10.9z" fill="" p-id="5414"></path><path d="M525.6 765.2h99.6c4.6 0 8.4-3.7 8.4-8.4 0-4.6-3.7-8.4-8.4-8.4h-99.6c-4.6 0-8.4 3.7-8.4 8.4 0.1 4.7 3.8 8.4 8.4 8.4z" fill="#127EFF" p-id="5415"></path><path d="M625.2 766.8h-99.6c-5.5 0-10-4.5-10-10s4.5-10 10-10h99.6c5.5 0 10 4.5 10 10s-4.5 10-10 10z m-99.6-16.7c-3.7 0-6.8 3-6.8 6.8 0 3.7 3 6.8 6.8 6.8h99.6c3.7 0 6.8-3 6.8-6.8 0-3.7-3-6.8-6.8-6.8h-99.6z" fill="" p-id="5416"></path><path d="M393.1 671.8c5.8-5.6-11.3-33-16.9-38.9L326 580.8 277.1 530c-5.6-5.8-15-6-20.9-0.4-5.8 5.6-6 15-0.4 20.9l99.1 103c5.7 5.7 32.4 23.9 38.2 18.3z" fill="#F40000" p-id="5417"></path><path d="M389.8 674.4c-3.8 0-9.4-2.1-16.7-6.1-8.2-4.6-16.5-10.8-19.4-13.8l-99.1-103c-3-3.1-4.6-7.3-4.6-11.7 0.1-4.4 1.9-8.5 5-11.5s7.2-4.6 11.7-4.6c4.4 0.1 8.5 1.9 11.5 5l99.1 103c4.3 4.5 24.3 34 16.9 41.1-1 1.1-2.5 1.6-4.4 1.6zM266.4 527.1c-3.4 0-6.7 1.3-9.1 3.7-2.5 2.4-3.9 5.7-4 9.2s1.2 6.8 3.7 9.4l99.1 103c2.7 2.8 10.6 8.7 18.6 13.2 10.5 5.9 15.8 6.5 17.3 5.1 4.4-4.3-10.5-29.9-17-36.6l-99.1-103c-2.4-2.5-5.7-3.9-9.2-4h-0.3z" fill="" p-id="5418"></path><path d="M319 594.8l-16.3 7.6-48.5-50.4c-5.6-5.8-4.7-15.9 2-22.4s16.9-7 22.5-1.2l48.8 50.7-8.5 15.7z" fill="#127EFF" p-id="5419"></path><path d="M302.3 604.3L253 553.1c-3-3.2-4.5-7.5-4.1-12.2 0.4-4.6 2.6-9.1 6.1-12.5s8-5.4 12.7-5.7c4.7-0.2 9 1.4 12.1 4.5l49.6 51.6-9.4 17.1-17.7 8.4z m-33.6-78.4h-0.8c-3.9 0.2-7.7 1.9-10.6 4.8-3 2.9-4.8 6.6-5.2 10.5-0.3 3.8 0.8 7.2 3.2 9.7l47.7 49.5 14.8-6.9 7.8-14.1-48-49.9c-2.3-2.3-5.4-3.6-8.9-3.6zM473.1 595.8c-26.1 0-47.4-21.3-47.4-47.4S447 501 473.1 501s47.4 21.3 47.4 47.4-21.2 47.4-47.4 47.4z m0-90.5c-23.8 0-43.1 19.3-43.1 43.1s19.3 43.1 43.1 43.1 43.1-19.3 43.1-43.1-19.3-43.1-43.1-43.1z" fill="" p-id="5420"></path><path d="M690.4 566.5l41-54.7 35.2 10.4v-26.4l-47.4-15-28.8 34.8z" fill="#127EFF" p-id="5421"></path><path d="M688.8 571.3V515l29.9-36.1 49.5 15.7v29.6L732 513.6l-43.2 57.7z m3.2-55.1v45.4l38.7-51.7 34.2 10.1v-23l-45.2-14.4-27.7 33.6z" fill="" p-id="5422"></path><path d="M741.9 757.6c-18.9-4-18.9-81.1-14.9-100.1l35.7-169.1 34.7-164.7c4-18.9 22.8-31.2 41.7-27.2 18.9 4 31.2 22.8 27.2 41.7L795.9 672c-4 19-35.1 89.6-54 85.6z" fill="#F40000" p-id="5423"></path><path d="M743.4 759.4c-0.6 0-1.3-0.1-1.9-0.2-21.5-4.5-19.5-85.7-16.1-101.9l70.4-333.8c4.2-19.9 23.7-32.6 43.6-28.4 19.9 4.2 32.6 23.8 28.4 43.6l-70.4 333.8c-2 9.6-10.8 32.1-21.6 51.8-8.8 16.2-21.5 35.1-32.4 35.1z m88.4-462c-15.5 0-29.5 10.9-32.9 26.7l-70.4 333.8c-4.3 20.4-3.3 94.6 13.6 98.1 7.2 1.5 18.5-10.6 30.9-33.4 10.6-19.4 19.3-41.5 21.2-50.9L864.7 338c3.8-18.1-7.8-36-25.9-39.8-2.4-0.5-4.7-0.8-7-0.8z" fill="" p-id="5424"></path><path d="M794.5 507.9l42.7-5.3 34.4-163.1c4-18.9-10.6-38.2-32.5-42.8-21.9-4.6-43 7.1-47 26.1l-34.7 164.4 37.1 20.7z" fill="#127EFF" p-id="5425"></path><path d="M794.2 509.6l-38.6-21.7 34.9-165.6c4.2-19.9 26.1-32.1 48.9-27.3 22.8 4.8 37.9 24.9 33.7 44.7L838.5 504l-44.3 5.6z m-35-23.3l35.7 20 41-5.1 34.2-162c3.8-18.1-10.2-36.5-31.3-40.9s-41.3 6.7-45.1 24.8l-34.5 163.2z" fill="" p-id="5426"></path><path d="M363.6 810.8l5.3 27-16.8 18.5h24.8l12.5-14.7-5.2-30.8z" fill="#127EFF" p-id="5427"></path><path d="M377.6 857.9h-29.1l18.6-20.6-5.4-28.2h23.9l5.6 32.9-13.6 15.9z m-21.9-3.2h20.4l11.5-13.5-4.9-28.8h-17.3l5 25.9-14.7 16.4z" fill="" p-id="5428"></path><path d="M567.2 810.8l5.2 27-16.7 18.5h24.7l12.5-14.7-5.2-30.8z" fill="#127EFF" p-id="5429"></path><path d="M581.2 857.9h-29.1l18.6-20.6-5.4-28.2h23.9l5.6 32.9-13.6 15.9z m-21.9-3.2h20.4l11.5-13.5-4.9-28.8H569l5 25.9-14.7 16.4z" fill="" p-id="5430"></path><path d="M437.1 769.6H328c-1.9 0-3.5-1.6-3.5-3.5V649.8c0-1.9 1.6-3.5 3.5-3.5h109.1c1.9 0 3.5 1.6 3.5 3.5v116.3c0.1 1.9-1.5 3.5-3.5 3.5z" fill="#127EFF" p-id="5431"></path><path d="M425.6 771.2h-86c-9.2 0-16.7-7.5-16.7-16.7v-93.1c0-9.2 7.5-16.7 16.7-16.7h86c9.2 0 16.7 7.5 16.7 16.7v93.1c0 9.2-7.5 16.7-16.7 16.7z m-86-123.3c-7.4 0-13.5 6.1-13.5 13.5v93.1c0 7.4 6.1 13.5 13.5 13.5h86c7.4 0 13.5-6.1 13.5-13.5v-93.1c0-7.4-6.1-13.5-13.5-13.5h-86z" fill="" p-id="5432"></path><path d="M332.8 771.9h99.6c4.6 0 8.4-3.7 8.4-8.4 0-4.6-3.7-8.4-8.4-8.4h-99.6c-4.6 0-8.4 3.7-8.4 8.4 0.1 4.6 3.8 8.4 8.4 8.4z" fill="#F40000" p-id="5433"></path><path d="M432.4 773.5h-99.6c-5.5 0-10-4.5-10-10s4.5-10 10-10h99.6c5.5 0 10 4.5 10 10s-4.5 10-10 10z m-99.6-16.7c-3.7 0-6.8 3-6.8 6.8 0 3.7 3 6.8 6.8 6.8h99.6c3.7 0 6.8-3 6.8-6.8 0-3.7-3-6.8-6.8-6.8h-99.6z" fill="" p-id="5434"></path><path d="M314.1 369.3l25.4 77.2 112.7 2.2 22.3-79.4h10.2l24.8 79.4h106.9l28.6-79.4-24.7-9.3-306.2 3z" fill="" p-id="5435"></path><path d="M374.7 376.4c0.7 2.2 5.5 9 5.5 9H361l32.9 56.7h11.7l-31.3-50.6h17.3L380.5 375" fill="#127EFF" p-id="5436"></path><path d="M384 377.2c0.2 0.6 17.1 21.1 17.1 21.1H384l26.8 45.8h12.7l-25.1-39.7h22.2l-27.4-27.2H384zM542.3 377.2c0.2 0.6 17.1 21.1 17.1 21.1h-17.1l26.8 45.8h12.7l-25.1-39.7h22.2l-27.4-27.2h-9.2z" fill="#F40000" p-id="5437"></path><path d="M543.9 385.5H518l33.2 56.7h10.9l-29.2-49.7H549z" fill="#127EFF" p-id="5438"></path><path d="M295.2 358.5h368.1v20.3H295.2z" fill="" p-id="5439"></path></svg>