<?xml version="1.0" standalone="no"?><!DOCTYPE svg PUBLIC "-//W3C//DTD SVG 1.1//EN" "http://www.w3.org/Graphics/SVG/1.1/DTD/svg11.dtd"><svg t="1711499948199" class="icon" viewBox="0 0 1024 1024" version="1.1" xmlns="http://www.w3.org/2000/svg" p-id="5209" xmlns:xlink="http://www.w3.org/1999/xlink" width="200" height="200"><path d="M0 512c0 282.774588 229.225412 512 512 512s512-229.225412 512-512S794.774588 0 512 0 0 229.225412 0 512z" fill="#FCE0D6" p-id="5210"></path><path d="M389.541647 632.560941a212.510118 212.510118 0 1 1 244.916706 0l55.356235 126.464a13.281882 13.281882 0 0 1-12.197647 18.582588H346.352941a13.281882 13.281882 0 0 1-12.197647-18.582588l55.356235-126.494117v0.030117z m19.365647-147.937882a106.255059 106.255059 0 0 0 206.185412 0l-51.531294-12.860235a53.127529 53.127529 0 0 1-103.122824 0l-51.531294 12.860235z" fill="#FF824A" p-id="5211"></path></svg>